<svg xmlns="http://www.w3.org/2000/svg"  viewBox="0 0 80 80" width="480px" height="480px"><path fill="#b0c1d4" d="M40.545,3.5c-9.701,0-20.478,3.629-22.745,15.494c-0.242,1.263,0.642,1.911,1.476,2.096l9.848,0.41 c0.926-0.049,1.664-0.772,1.842-1.683c0.848-4.088,4.309-5.317,8.192-5.317c2.097,0,4.473,0.45,5.713,2.308 c1.434,2.074,1.628,4.893,1.628,7.296v1.363c-5.911,0.658-14.051,1.059-19.578,3.465C20.536,31.664,15.5,37.237,15.5,45.429 c0,10.483,7.257,16.071,15.839,16.071c7.249,0,11.16-2.039,16.756-7.682c1.849,2.651,2.518,3.663,5.905,6.452 c0.762,0.404,1.722,0.33,2.395-0.27c0,0,5.438-4.628,7.515-6.362c0.828-0.675,0.649-1.728,0-2.648 c-1.863-2.547-3.409-4.661-3.409-9.392v-15.68c0-6.661,0.38-12.823-4.579-17.409C52.006,4.793,45.501,3.5,40.545,3.5z M43.306,33.505c0.92-0.061,2.271,0,3.194,0v2.256c0.003,3.935-0.273,7.169-2.275,10.665c-1.621,2.839-4.226,5.074-7.088,5.074 c-3.912,0-6.637-3.444-6.637-7.812C30.5,36.174,36.873,33.923,43.306,33.505z"/><path fill="#66798f" d="M31.339,62C23.207,62,15,56.876,15,45.429c0-7.589,4.274-13.77,11.726-16.957 c4.639-2.02,10.929-2.632,16.478-3.172c0.968-0.094,1.905-0.186,2.796-0.281v-0.915c0-2.367-0.183-5.05-1.539-7.012 C43.533,15.702,41.75,15,39.16,15c-4.434,0-7.026,1.655-7.703,4.918C31.229,21.082,30.28,21.94,29.151,22l-9.896-0.41 c-1.22-0.262-2.234-1.188-1.946-2.69C20.052,4.549,34.473,3,40.545,3c2.416,0,10.688,0.371,15.72,5.146 C61.049,12.571,61.023,18.41,61,24.592v17.006c0,4.57,1.462,6.568,3.313,9.097c0.902,1.279,0.867,2.553-0.087,3.331 c-2.072,1.729-7.506,6.355-7.506,6.355c-0.461,0.411-1.07,0.642-1.706,0.642l0,0c-0.433,0-0.864-0.107-1.248-0.311l-0.083-0.056 c-3.223-2.654-4.027-3.73-5.656-6.063C42.306,60.257,38.33,62,31.339,62z M39.16,14c2.946,0,5.008,0.851,6.129,2.53 C46.796,18.711,47,21.583,47,24.104v1.811l-0.445,0.05c-1.026,0.114-2.119,0.221-3.254,0.331 c-5.476,0.533-11.682,1.138-16.179,3.096C20.053,32.415,16,38.26,16,45.429C16,56.186,23.704,61,31.339,61 c6.842,0,10.674-1.76,16.401-7.534l0.422-0.426l0.478,0.685c1.709,2.452,2.421,3.473,5.636,6.125 c0.229,0.113,0.482,0.173,0.737,0.173l0,0c0.39,0,0.762-0.141,1.048-0.396c0.009-0.008,5.449-4.638,7.527-6.373 c0.748-0.611,0.188-1.585-0.088-1.977c-1.876-2.563-3.5-4.783-3.5-9.68l0.003-17.01c0.024-6.214,0.044-11.581-4.422-15.712 C50.814,4.351,42.868,4,40.545,4c-5.824,0-19.651,1.47-22.253,15.087c-0.211,1.102,0.694,1.426,1.093,1.514L29.146,21 c0.623-0.035,1.19-0.562,1.331-1.28C31.253,15.976,34.256,14,39.16,14z M37.137,52C33.068,52,30,48.427,30,43.688 c0-6.469,4.466-10.109,13.274-10.683c0.639-0.041,2.936-0.001,3.226-0.001H47v2.756c0.003,4.317-0.379,7.487-2.341,10.914 C42.754,50.009,39.942,52,37.137,52z M44.338,33.978c-0.359,0-0.702,0.006-1,0.026C35.036,34.543,31,37.759,31,43.688 C31,47.925,33.581,51,37.137,51c2.442,0,4.929-1.803,6.654-4.822c1.852-3.234,2.212-6.269,2.209-10.417V34 c-0.158-0.002-0.323-0.005-0.491-0.008C45.125,33.985,44.723,33.978,44.338,33.978z"/><g><path fill="#ffeea3" d="M71.978,58.5c-2.622,0.038-5.695,0.916-8.046,2.548c-0.721,0.502-0.416,1.229,0.385,1.133 c2.597-0.309,7.234-1.553,9.045,0.258c1.05,1.333-0.861,6.808-1.847,9.257c-0.3,0.738,0.35,1.025,1.025,0.462 c4.402-3.646,5.838-11.113,4.596-12.355C76.69,59.264,74.603,58.462,71.978,58.5z M3.148,60.463 c-0.548,0.072-0.76,0.494-0.183,1.01C12.75,70.22,25.526,75.5,39.886,75.5c10.243,0,21.77-3.071,29.977-9.068 c1.356-0.995,0.615-2.472-0.773-1.886c-9.199,3.865-19.499,5.051-28.594,5.051c-13.486,0-26.135-2.866-36.69-8.947 C3.573,60.516,3.327,60.44,3.148,60.463z"/><path fill="#ba9b48" d="M39.886,76C25.873,76,12.99,71.106,2.632,61.846c-0.575-0.514-0.542-0.974-0.472-1.202 c0.112-0.363,0.458-0.615,0.923-0.676l0.132-0.009c0.321,0,0.633,0.139,0.838,0.255c9.978,5.749,22.515,8.883,36.443,8.883 c11.02,0,20.639-1.75,28.401-5.012c0.925-0.39,1.86-0.043,2.116,0.737c0.177,0.54,0.046,1.353-0.853,2.013 C62.306,72.574,50.989,76,39.886,76z M3.17,60.966c0.028,0.036,0.069,0.082,0.128,0.135C13.47,70.194,26.122,75,39.886,75 c10.898,0,21.995-3.354,29.683-8.972c0.438-0.321,0.563-0.681,0.494-0.895c-0.063-0.192-0.259-0.221-0.371-0.221 c-0.123,0-0.259,0.032-0.407,0.094c-7.886,3.314-17.635,5.091-28.789,5.091c-14.103,0-26.813-3.18-36.939-9.014 c-0.171-0.097-0.299-0.123-0.342-0.123C3.199,60.961,3.184,60.964,3.17,60.966z M71.862,72.955L71.862,72.955 c-0.321,0-0.601-0.141-0.767-0.387c-0.11-0.164-0.262-0.519-0.043-1.06c1.729-4.291,2.536-7.975,1.918-8.759 c-0.489-0.483-1.477-0.767-2.885-0.767c-1.33,0-2.781,0.259-4.103,0.464c-0.582,0.09-1.126,0.174-1.605,0.231 c-0.648,0.077-1.154-0.22-1.308-0.711c-0.116-0.368-0.024-0.91,0.577-1.329c2.319-1.611,5.431-2.597,8.324-2.638h0.288 c2.553,0,4.671,0.77,5.263,1.484C77.922,59.882,78,60.71,78,61.901c0,3.201-1.966,8.014-5.14,10.643 C72.543,72.809,72.188,72.955,71.862,72.955z M70.086,61c1.687,0,2.906,0.362,3.631,1.086c1.325,1.677-0.775,7.409-1.737,9.797 c-0.007,0.018-0.014,0.035-0.019,0.05c0.069-0.025,0.16-0.075,0.26-0.159c2.954-2.447,4.696-6.937,4.836-9.92 c0.047-1.003-0.118-1.542-0.274-1.697c-0.297-0.354-2.054-1.159-4.627-1.159L71.985,59c-2.662,0.038-5.638,0.98-7.768,2.459 c-0.155,0.108-0.19,0.198-0.192,0.218c0.002-0.015,0.053,0.013,0.153,0.013c0.549-0.061,1.082-0.143,1.651-0.231 C67.188,61.248,68.679,61,70.086,61z"/></g></svg>